<?xml version="1.0" standalone="no"?>
<!DOCTYPE svg PUBLIC "-//W3C//DTD SVG 20010904//EN"
 "http://www.w3.org/TR/2001/REC-SVG-20010904/DTD/svg10.dtd">
<svg version="1.0" xmlns="http://www.w3.org/2000/svg"
 width="700.000000pt" height="700.000000pt" viewBox="0 0 700.000000 700.000000"
 preserveAspectRatio="xMidYMid meet">
<metadata>
Created by potrace 1.11, written by Peter Selinger 2001-2013
</metadata>
<g transform="translate(0.000000,700.000000) scale(0.100000,-0.100000)"
fill="#000000" stroke="none">
<path d="M4005 5319 c-278 -21 -555 -127 -770 -293 -85 -66 -217 -198 -282
-283 l-55 -72 -51 20 c-179 71 -401 84 -589 34 -340 -88 -617 -350 -721 -680
-25 -79 -45 -195 -50 -288 l-2 -48 -88 -39 c-504 -223 -775 -778 -637 -1305
91 -344 349 -630 685 -759 201 -77 28 -71 2200 -71 l1940 0 97 27 c397 110
689 415 770 808 16 78 19 121 15 240 -5 162 -28 262 -93 399 -136 290 -409
508 -714 571 l-85 17 2 49 c9 209 6 376 -10 459 -57 311 -192 571 -412 790
-308 309 -714 458 -1150 424z m321 -294 c311 -55 592 -239 770 -506 127 -191
183 -367 191 -600 6 -173 -8 -277 -64 -457 -19 -64 -38 -126 -40 -137 -4 -19
-1 -20 109 -15 304 15 478 -42 654 -215 93 -92 143 -171 187 -300 29 -84 31
-100 31 -225 0 -119 -4 -144 -27 -215 -43 -128 -99 -220 -191 -310 -93 -91
-176 -144 -291 -183 l-80 -27 -1955 0 -1955 0 -95 33 c-123 43 -209 94 -303
182 -125 117 -199 244 -239 409 -29 124 -22 321 16 436 66 196 200 361 377
466 81 47 221 95 305 105 34 3 67 10 74 14 10 6 9 31 -5 125 -20 135 -16 228
17 333 72 234 232 402 461 485 68 25 102 31 199 35 178 7 287 -23 475 -132
l61 -36 48 82 c82 141 144 228 220 307 168 177 401 302 640 345 107 19 301 20
410 1z"/>
<path d="M3677 4308 c-315 -38 -551 -294 -535 -580 3 -54 8 -72 28 -93 53 -57
128 -71 187 -35 43 26 59 61 67 148 8 92 26 136 78 189 86 88 217 118 346 79
191 -58 248 -264 120 -428 -23 -29 -98 -112 -168 -184 -109 -111 -133 -143
-168 -215 -47 -96 -62 -168 -62 -310 0 -83 3 -101 23 -130 62 -93 178 -88 245
11 17 25 22 47 22 95 0 81 15 159 42 213 11 25 83 109 162 192 144 150 188
211 234 322 23 55 26 77 26 178 0 95 -4 126 -23 180 -90 253 -344 403 -624
368z"/>
<path d="M3625 2451 c-74 -33 -125 -113 -125 -197 0 -48 46 -128 91 -160 72
-49 182 -44 250 13 50 42 72 97 67 169 -5 80 -40 133 -111 169 -60 30 -116 32
-172 6z"/>
</g>
</svg>
